<mxfile host="app.diagrams.net" modified="2021-09-14T02:04:04.034Z" agent="5.0 (Macintosh; Intel Mac OS X 10_15_7) AppleWebKit/537.36 (KHTML, like Gecko) Chrome/93.0.4577.63 Safari/537.36" etag="R_qVRLznFm_PdsELoB8q" version="15.1.0" type="github">
  <diagram name="Page-1" id="2cc2dc42-3aac-f2a9-1cec-7a8b7cbee084">
    <mxGraphModel dx="1825" dy="857" grid="1" gridSize="10" guides="1" tooltips="1" connect="1" arrows="1" fold="1" page="1" pageScale="1" pageWidth="1100" pageHeight="850" math="0" shadow="0">
      <root>
        <mxCell id="0" />
        <mxCell id="1" parent="0" />
        <mxCell id="5FDrHQYFY8WommjAz4SG-36" value="" style="strokeWidth=1;shadow=0;dashed=0;align=center;html=1;shape=mxgraph.mockup.containers.browserWindow;rSize=0;strokeColor2=#008cff;strokeColor3=#c4c4c4;mainText=,;recursiveResize=0;comic=0;" parent="1" vertex="1">
          <mxGeometry width="1100" height="850" as="geometry" />
        </mxCell>
        <mxCell id="5FDrHQYFY8WommjAz4SG-37" value="Page 1" style="strokeWidth=1;shadow=0;dashed=0;align=center;html=1;shape=mxgraph.mockup.containers.anchor;fontSize=17;align=left;" parent="5FDrHQYFY8WommjAz4SG-36" vertex="1">
          <mxGeometry x="60" y="12" width="110" height="26" as="geometry" />
        </mxCell>
        <mxCell id="5FDrHQYFY8WommjAz4SG-38" value="https://www.draw.io" style="strokeWidth=1;shadow=0;dashed=0;align=center;html=1;shape=mxgraph.mockup.containers.anchor;rSize=0;fontSize=17;align=left;" parent="5FDrHQYFY8WommjAz4SG-36" vertex="1">
          <mxGeometry x="130" y="60" width="250" height="26" as="geometry" />
        </mxCell>
        <mxCell id="5FDrHQYFY8WommjAz4SG-40" value="LOGO" style="whiteSpace=wrap;html=1;comic=0;" parent="5FDrHQYFY8WommjAz4SG-36" vertex="1">
          <mxGeometry x="10" y="120" width="120" height="60" as="geometry" />
        </mxCell>
        <mxCell id="5FDrHQYFY8WommjAz4SG-41" value="BANNER/ COOL PIC" style="whiteSpace=wrap;html=1;comic=0;" parent="5FDrHQYFY8WommjAz4SG-36" vertex="1">
          <mxGeometry y="190" width="1100" height="50" as="geometry" />
        </mxCell>
        <mxCell id="5FDrHQYFY8WommjAz4SG-51" value="LOGO" style="whiteSpace=wrap;html=1;comic=0;" parent="5FDrHQYFY8WommjAz4SG-36" vertex="1">
          <mxGeometry x="520" y="760" width="60" height="40" as="geometry" />
        </mxCell>
        <mxCell id="Z4Lno1UHb2DPyPvaZZxT-1" value="" style="verticalLabelPosition=bottom;shadow=0;dashed=0;align=center;html=1;verticalAlign=top;strokeWidth=1;shape=mxgraph.mockup.misc.map;" parent="5FDrHQYFY8WommjAz4SG-36" vertex="1">
          <mxGeometry x="300" y="410" width="470" height="300" as="geometry" />
        </mxCell>
        <mxCell id="Z4Lno1UHb2DPyPvaZZxT-2" value="" style="strokeWidth=1;shadow=0;dashed=0;align=center;html=1;shape=mxgraph.mockup.forms.rrect;rSize=0;strokeColor=#999999;fillColor=#ffffff;" parent="5FDrHQYFY8WommjAz4SG-36" vertex="1">
          <mxGeometry x="850" y="250" width="200" height="300" as="geometry" />
        </mxCell>
        <mxCell id="Z4Lno1UHb2DPyPvaZZxT-3" value="Sign In" style="strokeWidth=1;shadow=0;dashed=0;align=center;html=1;shape=mxgraph.mockup.forms.anchor;fontSize=12;fontColor=#666666;align=left;resizeWidth=1;spacingLeft=0;" parent="Z4Lno1UHb2DPyPvaZZxT-2" vertex="1">
          <mxGeometry width="100" height="20" relative="1" as="geometry">
            <mxPoint x="10" y="10" as="offset" />
          </mxGeometry>
        </mxCell>
        <mxCell id="Z4Lno1UHb2DPyPvaZZxT-4" value="" style="shape=line;strokeColor=#ddeeff;strokeWidth=2;html=1;resizeWidth=1;" parent="Z4Lno1UHb2DPyPvaZZxT-2" vertex="1">
          <mxGeometry width="180" height="10" relative="1" as="geometry">
            <mxPoint x="10" y="30" as="offset" />
          </mxGeometry>
        </mxCell>
        <mxCell id="Z4Lno1UHb2DPyPvaZZxT-5" value="User Name:" style="strokeWidth=1;shadow=0;dashed=0;align=center;html=1;shape=mxgraph.mockup.forms.anchor;fontSize=12;fontColor=#666666;align=left;resizeWidth=1;spacingLeft=0;" parent="Z4Lno1UHb2DPyPvaZZxT-2" vertex="1">
          <mxGeometry width="100" height="20" relative="1" as="geometry">
            <mxPoint x="10" y="40" as="offset" />
          </mxGeometry>
        </mxCell>
        <mxCell id="Z4Lno1UHb2DPyPvaZZxT-6" value="johndoe" style="strokeWidth=1;shadow=0;dashed=0;align=center;html=1;shape=mxgraph.mockup.forms.rrect;rSize=0;strokeColor=#999999;fontColor=#666666;align=left;spacingLeft=5;resizeWidth=1;" parent="Z4Lno1UHb2DPyPvaZZxT-2" vertex="1">
          <mxGeometry width="150" height="25" relative="1" as="geometry">
            <mxPoint x="10" y="60" as="offset" />
          </mxGeometry>
        </mxCell>
        <mxCell id="Z4Lno1UHb2DPyPvaZZxT-7" value="Password:" style="strokeWidth=1;shadow=0;dashed=0;align=center;html=1;shape=mxgraph.mockup.forms.anchor;fontSize=12;fontColor=#666666;align=left;resizeWidth=1;spacingLeft=0;" parent="Z4Lno1UHb2DPyPvaZZxT-2" vertex="1">
          <mxGeometry width="100" height="20" relative="1" as="geometry">
            <mxPoint x="10" y="95" as="offset" />
          </mxGeometry>
        </mxCell>
        <mxCell id="Z4Lno1UHb2DPyPvaZZxT-8" value="********" style="strokeWidth=1;shadow=0;dashed=0;align=center;html=1;shape=mxgraph.mockup.forms.rrect;rSize=0;strokeColor=#999999;fontColor=#666666;align=left;spacingLeft=5;resizeWidth=1;" parent="Z4Lno1UHb2DPyPvaZZxT-2" vertex="1">
          <mxGeometry width="150" height="25" relative="1" as="geometry">
            <mxPoint x="10" y="115" as="offset" />
          </mxGeometry>
        </mxCell>
        <mxCell id="Z4Lno1UHb2DPyPvaZZxT-9" value="SIGN IN" style="strokeWidth=1;shadow=0;dashed=0;align=center;html=1;shape=mxgraph.mockup.forms.rrect;rSize=5;strokeColor=none;fontColor=#ffffff;fillColor=#66bbff;fontSize=16;fontStyle=1;" parent="Z4Lno1UHb2DPyPvaZZxT-2" vertex="1">
          <mxGeometry y="1" width="80" height="30" relative="1" as="geometry">
            <mxPoint x="20" y="-150" as="offset" />
          </mxGeometry>
        </mxCell>
        <mxCell id="Z4Lno1UHb2DPyPvaZZxT-10" value="Forgot Password?" style="strokeWidth=1;shadow=0;dashed=0;align=center;html=1;shape=mxgraph.mockup.forms.anchor;fontSize=12;fontColor=#9999ff;align=left;spacingLeft=0;fontStyle=4;resizeWidth=1;" parent="Z4Lno1UHb2DPyPvaZZxT-2" vertex="1">
          <mxGeometry y="1" width="150" height="20" relative="1" as="geometry">
            <mxPoint x="10" y="-110" as="offset" />
          </mxGeometry>
        </mxCell>
        <mxCell id="Z4Lno1UHb2DPyPvaZZxT-11" value="" style="shape=line;strokeColor=#ddeeff;strokeWidth=2;html=1;resizeWidth=1;" parent="Z4Lno1UHb2DPyPvaZZxT-2" vertex="1">
          <mxGeometry y="1" width="180" height="10" relative="1" as="geometry">
            <mxPoint x="10" y="-90" as="offset" />
          </mxGeometry>
        </mxCell>
        <mxCell id="Z4Lno1UHb2DPyPvaZZxT-12" value="New User" style="strokeWidth=1;shadow=0;dashed=0;align=center;html=1;shape=mxgraph.mockup.forms.anchor;fontSize=12;fontColor=#666666;align=left;spacingLeft=0;resizeWidth=1;" parent="Z4Lno1UHb2DPyPvaZZxT-2" vertex="1">
          <mxGeometry y="1" width="150" height="20" relative="1" as="geometry">
            <mxPoint x="10" y="-70" as="offset" />
          </mxGeometry>
        </mxCell>
        <mxCell id="Z4Lno1UHb2DPyPvaZZxT-13" value="SIGN UP" style="strokeWidth=1;shadow=0;dashed=0;align=center;html=1;shape=mxgraph.mockup.forms.rrect;rSize=5;strokeColor=none;fontColor=#ffffff;fillColor=#66bbff;fontSize=16;fontStyle=1;" parent="Z4Lno1UHb2DPyPvaZZxT-2" vertex="1">
          <mxGeometry y="1" width="80" height="30" relative="1" as="geometry">
            <mxPoint x="20" y="-50" as="offset" />
          </mxGeometry>
        </mxCell>
        <mxCell id="Z4Lno1UHb2DPyPvaZZxT-14" value="Search" style="strokeWidth=1;shadow=0;dashed=0;align=center;html=1;shape=mxgraph.mockup.forms.searchBox;strokeColor=#999999;mainText=;strokeColor2=#008cff;fontColor=#666666;fontSize=17;align=left;spacingLeft=3;" parent="5FDrHQYFY8WommjAz4SG-36" vertex="1">
          <mxGeometry x="619" y="378" width="150" height="30" as="geometry" />
        </mxCell>
        <mxCell id="Z4Lno1UHb2DPyPvaZZxT-19" value="shbfjadsbfkjasbfndjks" style="shape=mxgraph.mockup.containers.marginRect;rectMarginTop=10;strokeColor=#666666;strokeWidth=1;dashed=0;rounded=1;arcSize=5;recursiveResize=0;" parent="5FDrHQYFY8WommjAz4SG-36" vertex="1">
          <mxGeometry x="150" y="380" width="130" height="130" as="geometry" />
        </mxCell>
        <mxCell id="Z4Lno1UHb2DPyPvaZZxT-20" value="Group" style="shape=rect;strokeColor=none;fillColor=#008cff;strokeWidth=1;dashed=0;rounded=1;arcSize=20;fontColor=#ffffff;fontSize=17;spacing=2;spacingTop=-2;align=left;autosize=1;spacingLeft=4;resizeWidth=0;resizeHeight=0;perimeter=none;" parent="Z4Lno1UHb2DPyPvaZZxT-19" vertex="1">
          <mxGeometry x="5" width="90" height="30" as="geometry" />
        </mxCell>
        <mxCell id="Z4Lno1UHb2DPyPvaZZxT-21" value="QOUTE MAYBE?" style="rounded=0;whiteSpace=wrap;html=1;" parent="5FDrHQYFY8WommjAz4SG-36" vertex="1">
          <mxGeometry x="340" y="250" width="390" height="60" as="geometry" />
        </mxCell>
        <mxCell id="8eGPKUsGxIK9qQoLeTuS-6" value="" style="rounded=0;whiteSpace=wrap;html=1;" vertex="1" parent="5FDrHQYFY8WommjAz4SG-36">
          <mxGeometry x="13" y="250" width="262" height="120" as="geometry" />
        </mxCell>
        <mxCell id="8eGPKUsGxIK9qQoLeTuS-7" value="FIND USER" style="text;strokeColor=none;fillColor=none;html=1;fontSize=24;fontStyle=1;verticalAlign=middle;align=center;" vertex="1" parent="5FDrHQYFY8WommjAz4SG-36">
          <mxGeometry x="93" y="250" width="100" height="40" as="geometry" />
        </mxCell>
        <mxCell id="8eGPKUsGxIK9qQoLeTuS-8" value="Search" style="strokeWidth=1;shadow=0;dashed=0;align=center;html=1;shape=mxgraph.mockup.forms.searchBox;strokeColor=#999999;mainText=;strokeColor2=#008cff;fontColor=#666666;fontSize=17;align=left;spacingLeft=3;" vertex="1" parent="5FDrHQYFY8WommjAz4SG-36">
          <mxGeometry x="18" y="300" width="250" height="30" as="geometry" />
        </mxCell>
        <mxCell id="5FDrHQYFY8WommjAz4SG-50" value="FOOTER" style="whiteSpace=wrap;html=1;comic=0;" parent="1" vertex="1">
          <mxGeometry y="810" width="1100" height="40" as="geometry" />
        </mxCell>
        <mxCell id="5FDrHQYFY8WommjAz4SG-52" value="DISCLAIMER" style="whiteSpace=wrap;html=1;comic=0;" parent="1" vertex="1">
          <mxGeometry y="720" width="1100" height="30" as="geometry" />
        </mxCell>
        <mxCell id="5FDrHQYFY8WommjAz4SG-53" value="" style="verticalLabelPosition=bottom;shadow=0;dashed=0;verticalAlign=top;strokeWidth=2;html=1;shape=mxgraph.mockup.misc.copyrightIcon;comic=0;" parent="1" vertex="1">
          <mxGeometry x="490" y="817.5" width="25" height="25" as="geometry" />
        </mxCell>
        <mxCell id="5FDrHQYFY8WommjAz4SG-54" value="HOME" style="text;strokeColor=none;fillColor=none;html=1;fontSize=24;fontStyle=1;verticalAlign=middle;align=center;comic=0;" parent="1" vertex="1">
          <mxGeometry x="500" y="110" width="100" height="40" as="geometry" />
        </mxCell>
        <mxCell id="FO_pWmDVU2w-Zh8JHuIy-13" value="Link" style="shape=rectangle;strokeColor=none;fillColor=none;linkText=;fontSize=17;fontColor=#0000ff;fontStyle=4;html=1;align=center;" parent="1" vertex="1">
          <mxGeometry x="475" y="160" width="150" height="30" as="geometry" />
        </mxCell>
        <mxCell id="FO_pWmDVU2w-Zh8JHuIy-14" value="Link" style="shape=rectangle;strokeColor=none;fillColor=none;linkText=;fontSize=17;fontColor=#0000ff;fontStyle=4;html=1;align=center;" parent="1" vertex="1">
          <mxGeometry x="427.5" y="160" width="150" height="30" as="geometry" />
        </mxCell>
        <mxCell id="FO_pWmDVU2w-Zh8JHuIy-15" value="Link" style="shape=rectangle;strokeColor=none;fillColor=none;linkText=;fontSize=17;fontColor=#0000ff;fontStyle=4;html=1;align=center;" parent="1" vertex="1">
          <mxGeometry x="530" y="160" width="150" height="30" as="geometry" />
        </mxCell>
        <mxCell id="Lzk2SjWY70UIA3nWThLT-53" value="" style="line;strokeWidth=2;direction=south;html=1;" parent="1" vertex="1">
          <mxGeometry x="280" y="240" width="10" height="480" as="geometry" />
        </mxCell>
        <mxCell id="Lzk2SjWY70UIA3nWThLT-54" value="" style="line;strokeWidth=2;direction=south;html=1;" parent="1" vertex="1">
          <mxGeometry x="800" y="240" width="10" height="480" as="geometry" />
        </mxCell>
        <mxCell id="Lzk2SjWY70UIA3nWThLT-75" value="" style="verticalLabelPosition=bottom;shadow=0;dashed=0;align=center;html=1;verticalAlign=top;strokeWidth=1;shape=mxgraph.mockup.navigation.scrollBar;strokeColor=#999999;barPos=20;fillColor2=#99ddff;strokeColor2=none;direction=north;" parent="1" vertex="1">
          <mxGeometry x="785" y="240" width="20" height="480" as="geometry" />
        </mxCell>
        <mxCell id="Z4Lno1UHb2DPyPvaZZxT-15" value="" style="verticalLabelPosition=top;shadow=0;dashed=0;align=center;html=1;verticalAlign=bottom;strokeWidth=1;shape=mxgraph.mockup.misc.pin;fillColor2=#dd0000;fillColor3=#440000;strokeColor=#660000;" parent="1" vertex="1">
          <mxGeometry x="417.5" y="580" width="10" height="25" as="geometry" />
        </mxCell>
        <mxCell id="Z4Lno1UHb2DPyPvaZZxT-16" value="" style="verticalLabelPosition=top;shadow=0;dashed=0;align=center;html=1;verticalAlign=bottom;strokeWidth=1;shape=mxgraph.mockup.misc.pin;fillColor2=#ffff00;fillColor3=#888800;strokeColor=#999900;" parent="1" vertex="1">
          <mxGeometry x="440" y="460" width="10" height="25" as="geometry" />
        </mxCell>
        <mxCell id="Z4Lno1UHb2DPyPvaZZxT-17" value="" style="verticalLabelPosition=top;shadow=0;dashed=0;align=center;html=1;verticalAlign=bottom;strokeWidth=1;shape=mxgraph.mockup.misc.pin;fillColor2=#00dd00;fillColor3=#004400;strokeColor=#006600;" parent="1" vertex="1">
          <mxGeometry x="720" y="580" width="10" height="25" as="geometry" />
        </mxCell>
        <mxCell id="Z4Lno1UHb2DPyPvaZZxT-18" value="Callout" style="strokeWidth=1;shadow=0;dashed=0;align=center;html=1;shape=mxgraph.mockup.text.callout;linkText=;textSize=17;textColor=#666666;callDir=NW;callStyle=line;fontSize=17;fontColor=#666666;align=left;verticalAlign=top;strokeColor=#666666;" parent="1" vertex="1">
          <mxGeometry x="217.5" y="505" width="200" height="100" as="geometry" />
        </mxCell>
      </root>
    </mxGraphModel>
  </diagram>
</mxfile>
